$MeshFormat
4.1 0 8
$EndMeshFormat
$Entities
9 8 1 0
1 0 0 0 0 
2 2.2 0 0 0 
3 2.2 0.41 0 0 
4 0 0.41 0 0 
5 0.2 0.2 0 0 
6 0.15 0.2 0 0 
7 0.2 0.15 0 0 
8 0.25 0.2 0 0 
9 0.2 0.25 0 0 
1 0 0 0 2.2 0 0 0 2 1 -2 
2 2.2 0 0 2.2 0.41 0 0 2 2 -3 
3 0 0.41 0 2.2 0.41 0 0 2 3 -4 
4 0 0 0 0 0.41 0 0 2 4 -1 
5 0.15 0.15 0 0.2 0.2 0 0 2 6 -7 
6 0.2 0.15 0 0.25 0.2 0 0 2 7 -8 
7 0.2 0.2 0 0.25 0.25 0 0 2 8 -9 
8 0.15 0.2 0 0.2 0.25 0 0 2 9 -6 
1 0 0 0 2.2 0.41 0 0 8 1 2 3 4 -8 -7 -6 -5 
$EndEntities
$Nodes
18 953 1 953
0 1 0 1
1
0 0 0
0 2 0 1
2
2.2 0 0
0 3 0 1
3
2.2 0.41 0
0 4 0 1
4
0 0.41 0
0 5 0 1
5
0.2 0.2 0
0 6 0 1
6
0.15 0.2 0
0 7 0 1
7
0.2 0.15 0
0 8 0 1
8
0.25 0.2 0
0 9 0 1
9
0.2 0.25 0
1 1 0 54
10
11
12
13
14
15
16
17
18
19
20
21
22
23
24
25
26
27
28
29
30
31
32
33
34
35
36
37
38
39
40
41
42
43
44
45
46
47
48
49
50
51
52
53
54
55
56
57
58
59
60
61
62
63
0.0399999999999241 0 0
0.07999999999984503 0 0
0.1199999999997606 0 0
0.159999999999693 0 0
0.1999999999996357 0 0
0.2399999999995745 0 0
0.2799999999995105 0 0
0.3199999999994012 0 0
0.3599999999992633 0 0
0.3999999999991457 0 0
0.4399999999990289 0 0
0.4799999999989019 0 0
0.5199999999987734 0 0
0.5599999999986222 0 0
0.5999999999984962 0 0
0.6399999999983792 0 0
0.6799999999982623 0 0
0.7199999999981455 0 0
0.7599999999980285 0 0
0.7999999999979115 0 0
0.8399999999977539 0 0
0.8799999999976342 0 0
0.9199999999975174 0 0
0.9599999999974003 0 0
0.9999999999972873 0 0
1.039999999997188 0 0
1.079999999997115 0 0
1.119999999997099 0 0
1.159999999997205 0 0
1.199999999997312 0 0
1.239999999997403 0 0
1.279999999997525 0 0
1.31999999999761 0 0
1.359999999997738 0 0
1.399999999997823 0 0
1.439999999997952 0 0
1.479999999998037 0 0
1.519999999998165 0 0
1.55999999999825 0 0
1.599999999998378 0 0
1.639999999998464 0 0
1.679999999998549 0 0
1.719999999998677 0 0
1.759999999998762 0 0
1.799999999998879 0 0
1.839999999998976 0 0
1.879999999999078 0 0
1.919999999999189 0 0
1.959999999999276 0 0
1.999999999999387 0 0
2.039999999999371 0 0
2.079999999999617 0 0
2.119999999999686 0 0
2.159999999999873 0 0
1 2 0 10
64
65
66
67
68
69
70
71
72
73
2.2 0.03727272727265683 0
2.2 0.07454545454529118 0
2.2 0.1118181818179101 0
2.2 0.149090909090529 0
2.2 0.1863636363631695 0
2.2 0.2236363636358928 0
2.2 0.260909090908699 0
2.2 0.298181818181505 0
2.2 0.3354545454543468 0
2.2 0.372727272727161 0
1 3 0 54
74
75
76
77
78
79
80
81
82
83
84
85
86
87
88
89
90
91
92
93
94
95
96
97
98
99
100
101
102
103
104
105
106
107
108
109
110
111
112
113
114
115
116
117
118
119
120
121
122
123
124
125
126
127
2.160000000000019 0.41 0
2.120000000000038 0.41 0
2.080000000000142 0.41 0
2.040000000000249 0.41 0
2.000000000000268 0.41 0
1.960000000000287 0.41 0
1.920000000000362 0.41 0
1.880000000000482 0.41 0
1.840000000000559 0.41 0
1.800000000000678 0.41 0
1.760000000000755 0.41 0
1.720000000000875 0.41 0
1.680000000000951 0.41 0
1.640000000001208 0.41 0
1.600000000001325 0.41 0
1.560000000001495 0.41 0
1.520000000001623 0.41 0
1.480000000001763 0.41 0
1.440000000001922 0.41 0
1.400000000002031 0.41 0
1.360000000002214 0.41 0
1.320000000002299 0.41 0
1.280000000002431 0.41 0
1.240000000002487 0.41 0
1.200000000002642 0.41 0
1.160000000002727 0.41 0
1.120000000002803 0.41 0
1.080000000002822 0.41 0
1.040000000002719 0.41 0
1.000000000002615 0.41 0
0.9600000000025268 0.41 0
0.9200000000024078 0.41 0
0.8800000000023256 0.41 0
0.8400000000022001 0.41 0
0.8000000000021179 0.41 0
0.7600000000019926 0.41 0
0.7200000000019102 0.41 0
0.680000000001785 0.41 0
0.6400000000017028 0.41 0
0.6000000000015773 0.41 0
0.5600000000014953 0.41 0
0.5200000000014129 0.41 0
0.4800000000012876 0.41 0
0.4400000000012052 0.41 0
0.4000000000010917 0.41 0
0.360000000000998 0.41 0
0.3200000000008991 0.41 0
0.2800000000007903 0.41 0
0.2400000000007065 0.41 0
0.2000000000005986 0.41 0
0.1600000000006174 0.41 0
0.1200000000003749 0.41 0
0.08000000000030871 0.41 0
0.04000000000012438 0.41 0
1 4 0 10
128
129
130
131
132
133
134
135
136
137
0 0.3727272727273585 0
0 0.3354545454547171 0
0 0.2981818181820973 0
0 0.2609090909094774 0
0 0.2236363636368359 0
0 0.1863636363641117 0
0 0.1490909090913046 0
0 0.1118181818184977 0
0 0.07454545454565503 0
0 0.03727272727283992 0
1 5 0 6
138
139
140
141
142
143
0.1512536043991918 0.1888739532658943 0
0.1549515566382029 0.1783058129749245 0
0.1609084259311361 0.1688255098386754 0
0.1688255099546973 0.1609084258386118 0
0.1783058130605651 0.1549515565969606 0
0.1888739533194196 0.151253604386975 0
1 6 0 6
144
145
146
147
148
149
0.2111260467341057 0.1512536043991918 0
0.2216941870250755 0.1549515566382029 0
0.2311744901613246 0.1609084259311361 0
0.2390915741613883 0.1688255099546973 0
0.2450484434030395 0.1783058130605651 0
0.248746395613025 0.1888739533194196 0
1 7 0 6
150
151
152
153
154
155
0.2487463956008082 0.2111260467341057 0
0.2450484433617972 0.2216941870250755 0
0.2390915740688639 0.2311744901613246 0
0.2311744900453028 0.2390915741613883 0
0.2216941869394349 0.2450484434030395 0
0.2111260466805805 0.248746395613025 0
1 8 0 6
156
157
158
159
160
161
0.1888739532658943 0.2487463956008082 0
0.1783058129749245 0.2450484433617972 0
0.1688255098386754 0.2390915740688639 0
0.1609084258386118 0.2311744900453028 0
0.1549515565969606 0.2216941869394349 0
0.151253604386975 0.2111260466805805 0
2 1 0 792
162
163
164
165
166
167
168
169
170
171
172
173
174
175
176
177
178
179
180
181
182
183
184
185
186
187
188
189
190
191
192
193
194
195
196
197
198
199
200
201
202
203
204
205
206
207
208
209
210
211
212
213
214
215
216
217
218
219
220
221
222
223
224
225
226
227
228
229
230
231
232
233
234
235
236
237
238
239
240
241
242
243
244
245
246
247
248
249
250
251
252
253
254
255
256
257
258
259
260
261
262
263
264
265
266
267
268
269
270
271
272
273
274
275
276
277
278
279
280
281
282
283
284
285
286
287
288
289
290
291
292
293
294
295
296
297
298
299
300
301
302
303
304
305
306
307
308
309
310
311
312
313
314
315
316
317
318
319
320
321
322
323
324
325
326
327
328
329
330
331
332
333
334
335
336
337
338
339
340
341
342
343
344
345
346
347
348
349
350
351
352
353
354
355
356
357
358
359
360
361
362
363
364
365
366
367
368
369
370
371
372
373
374
375
376
377
378
379
380
381
382
383
384
385
386
387
388
389
390
391
392
393
394
395
396
397
398
399
400
401
402
403
404
405
406
407
408
409
410
411
412
413
414
415
416
417
418
419
420
421
422
423
424
425
426
427
428
429
430
431
432
433
434
435
436
437
438
439
440
441
442
443
444
445
446
447
448
449
450
451
452
453
454
455
456
457
458
459
460
461
462
463
464
465
466
467
468
469
470
471
472
473
474
475
476
477
478
479
480
481
482
483
484
485
486
487
488
489
490
491
492
493
494
495
496
497
498
499
500
501
502
503
504
505
506
507
508
509
510
511
512
513
514
515
516
517
518
519
520
521
522
523
524
525
526
527
528
529
530
531
532
533
534
535
536
537
538
539
540
541
542
543
544
545
546
547
548
549
550
551
552
553
554
555
556
557
558
559
560
561
562
563
564
565
566
567
568
569
570
571
572
573
574
575
576
577
578
579
580
581
582
583
584
585
586
587
588
589
590
591
592
593
594
595
596
597
598
599
600
601
602
603
604
605
606
607
608
609
610
611
612
613
614
615
616
617
618
619
620
621
622
623
624
625
626
627
628
629
630
631
632
633
634
635
636
637
638
639
640
641
642
643
644
645
646
647
648
649
650
651
652
653
654
655
656
657
658
659
660
661
662
663
664
665
666
667
668
669
670
671
672
673
674
675
676
677
678
679
680
681
682
683
684
685
686
687
688
689
690
691
692
693
694
695
696
697
698
699
700
701
702
703
704
705
706
707
708
709
710
711
712
713
714
715
716
717
718
719
720
721
722
723
724
725
726
727
728
729
730
731
732
733
734
735
736
737
738
739
740
741
742
743
744
745
746
747
748
749
750
751
752
753
754
755
756
757
758
759
760
761
762
763
764
765
766
767
768
769
770
771
772
773
774
775
776
777
778
779
780
781
782
783
784
785
786
787
788
789
790
791
792
793
794
795
796
797
798
799
800
801
802
803
804
805
806
807
808
809
810
811
812
813
814
815
816
817
818
819
820
821
822
823
824
825
826
827
828
829
830
831
832
833
834
835
836
837
838
839
840
841
842
843
844
845
846
847
848
849
850
851
852
853
854
855
856
857
858
859
860
861
862
863
864
865
866
867
868
869
870
871
872
873
874
875
876
877
878
879
880
881
882
883
884
885
886
887
888
889
890
891
892
893
894
895
896
897
898
899
900
901
902
903
904
905
906
907
908
909
910
911
912
913
914
915
916
917
918
919
920
921
922
923
924
925
926
927
928
929
930
931
932
933
934
935
936
937
938
939
940
941
942
943
944
945
946
947
948
949
950
951
952
953
0.421082974168205 0.3762469702943563 0
0.4216080038241782 0.03420736616821278 0
2.167720871313529 0.2049999999995308 0
1.658737336064229 0.3760879832126708 0
1.381045908683181 0.3752981942027308 0
0.5384912192341081 0.03401016415053836 0
1.540000000001559 0.3753589838487563 0
1.902083059697599 0.3721008812285339 0
0.8194097109148105 0.03275668895627071 0
1.78135609169695 0.3792254904604415 0
1.220454544587439 0.3756214152871687 0
0.663133980171011 0.03399391092641146 0
0.9345674521433933 0.03250805852795132 0
1.094858665801441 0.3719970458350587 0
1.459306579291759 0.03424066952005313 0
0.7394304256782882 0.3747597609642261 0
1.300139215972234 0.02648598187227581 0
0.158179298061812 0.1572994559030338 0
0.1575056691275075 0.2416219154425407 0
1.9818373775587 0.03155200249013751 0
1.060000071098681 0.03277650501646436 0
1.178205716069749 0.03234231191344223 0
0.8675744317975143 0.3727001415940253 0
1.619999999998421 0.03464101615145142 0
0.9807131275851595 0.3766978435256569 0
0.5793456031912183 0.3754214685431982 0
1.739999999998713 0.03203348957426039 0
1.859999999999027 0.03464101615146353 0
0.1796049397160727 0.2562241751883287 0
0.1444761143454339 0.2199326847950831 0
0.1442398962847533 0.1794673101694887 0
2.02037153048503 0.3788747347744707 0
0.1803873626425787 0.1439503025810907 0
0.3007161213134265 0.3796825722702373 0
0.2195273986001353 0.256101720607362 0
0.03052795941185765 0.09597571841846571 0
0.2999999999994559 0.03464101615127049 0
0.2206610430270338 0.1436072056708794 0
0.1000000000003418 0.375358983848565 0
0.03227912868641784 0.2795454545457872 0
2.058153740752048 0.0343636492037068 0
1.300000000002365 0.3762374970244778 0
1.540626744541499 0.03427916730500852 0
1.380285680473959 0.03266009297374871 0
0.6665295432318384 0.3780247674616793 0
0.4995202776299592 0.375734417207262 0
1.460000000001841 0.3753589838487596 0
0.7403865924278495 0.03177335168737832 0
2.165836617334178 0.2826760897147369 0
2.164523180508156 0.1305564593248592 0
0.1399999999997268 0.0346410161513117 0
0.03331307876163359 0.2030029898714586 0
0.2159824707353661 0.3796489518634301 0
0.2202972294381221 0.03167780727753466 0
2.105038509485533 0.3698399539937369 0
2.138564006294392 0.03514112757941564 0
0.03092488338977126 0.3523873635728283 0
2.169246993178743 0.3499274851795188 0
0.05999999999988457 0.03464101615130675 0
0.2066185842588606 0.2588761994846708 0
0.2148633712229548 0.2690936609824089 0
0.2287036630856398 0.2662921712923595 0
0.2247466167683808 0.2806972703710688 0
0.2403553998413261 0.2779430856310192 0
0.2087251562571505 0.2831398475428994 0
0.2355722854002006 0.2942741596194026 0
0.2536952424733362 0.2901481046510827 0
0.2560148934165296 0.2710047808736253 0
0.2718815558686203 0.2852464755241044 0
0.2752517474012339 0.2636420047651154 0
0.2916463282426768 0.2800735255840154 0
0.297001990463054 0.2602013468655923 0
0.313003957570547 0.2753007921915124 0
0.3189104365368233 0.2530123322444704 0
0.2560496974189093 0.1803873626425787 0
0.3370649612785002 0.2696727455766678 0
0.3432940084594377 0.243807420900176 0
0.3630480767522062 0.2631247502955745 0
0.3698661333007187 0.2359910209793555 0
0.3487824093940083 0.2165825352461301 0
0.3766682617403156 0.2072275311957507 0
0.3988040366765864 0.2277588736765678 0
0.4058870941469667 0.1970207815251311 0
0.4295296864111916 0.2188707270239035 0
0.3545972878508932 0.1883763525700587 0
0.4371063444400437 0.1874419813571548 0
0.4620790979358985 0.2092881007974561 0
0.2590377481673566 0.2069957516919254 0
0.4701270658722781 0.1749470453346498 0
0.4959270946239741 0.1987513517547695 0
0.4125659112796114 0.1684949337129279 0
0.4873269990904614 0.2331716596907866 0
0.5219883995610911 0.2215743044325362 0
0.5304249227796085 0.187107576123411 0
0.5578057448371271 0.2123994767269488 0
0.566153560710303 0.1760568257363944 0
0.5941315682566111 0.2011976661173892 0
0.6024696023198061 0.1642387034711737 0
0.6308987241962479 0.1896451312736528 0
0.6224467498294106 0.2273124750510552 0
0.6595099231571073 0.215824969741512 0
0.6678929210947637 0.1777057902802853 0
0.6968555992322718 0.2040812554394862 0
0.4220031977333633 0.2508053293250949 0
0.7052493710636054 0.1657110706561486 0
0.7343967762477358 0.1922222698898358 0
0.7259193838336389 0.230658888404542 0
0.7636047379511 0.2188708914901646 0
0.7721082410813035 0.1801896346986485 0
0.8014324361069405 0.2068997450981349 0
0.8099472351280272 0.168086249952718 0
0.8393662357578728 0.1948753037567313 0
0.8478788109383801 0.1559645764678479 0
0.8773425086377868 0.1828239348886233 0
0.8687987789039471 0.2217556430812603 0
0.906822312676538 0.2097047485594975 0
0.9153716910219212 0.1707235627137304 0
0.9448714170081693 0.197621976237524 0
0.9534193425048485 0.1586135377801432 0
0.9829388425349901 0.1855263357028169 0
0.9743795555653707 0.2245493249409754 0
1.012462848254953 0.2124534178994084 0
1.021022895014148 0.1734151160488505 0
1.050559527757415 0.200348434871839 0
1.059118802231426 0.1612979288094574 0
1.088662501532092 0.1882381080518663 0
1.080098471263172 0.2272930374094426 0
1.118206911653065 0.215183172408798 0
1.126769116991971 0.176121247752623 0
1.156318254103975 0.2030693145461707 0
1.147753903593834 0.242132729352561 0
1.185867340585581 0.230018325925548 0
1.194431789782723 0.1909524561649913 0
1.223982611310142 0.2179030541610878 0
1.232547080807506 0.1788350983358761 0
1.262099320907089 0.2057874253879295 0
0.7943999066206968 0.2510979135873036 0
0.8982591984488688 0.248680619180304 0
1.270664560518246 0.1667183258413905 0
1.300217222187543 0.1936707060604651 0
1.291651461841837 0.2327405717117521 0
1.329770030917031 0.2206237842364319 0
1.338335767294543 0.1815534389507485 0
1.367889074455913 0.2085067785945478 0
1.376454784529247 0.1694359017711152 0
1.406008481754552 0.196389558759501 0
1.397442566697999 0.235460686497872 0
1.435562274115369 0.2233434648251766 0
1.444128178933858 0.1842720579430782 0
1.473682183628124 0.2112260552772826 0
1.48224808593159 0.1721544371172417 0
1.511802227904776 0.1991085566646358 0
0.3557061495223677 0.2896691396998047 0
1.505953788903248 0.2379299265246935 0
1.541356401677385 0.2260627600666251 0
1.549922363285264 0.1869909636440732 0
1.579667900342213 0.2145469990953309 0
1.588185412336413 0.1753227109446721 0
1.61784383298644 0.2026046106092091 0
1.626771264457374 0.1646697894561874 0
1.655859699658341 0.1901585277220147 0
1.646973238728766 0.2280779772398268 0
1.684595712301356 0.2145145411602107 0
1.693748576381586 0.1773088322697531 0
1.723263501577126 0.20414099662799 0
1.731920349368361 0.1653612106997935 0
1.761483398528105 0.1923415594690904 0
1.770065960613702 0.1533277277924053 0
1.799624214395022 0.1802960572158612 0
1.791057737084627 0.2193559343555484 0
1.829161968587643 0.207264426009014 0
1.820598689964809 0.2463012479660684 0
1.858664811902113 0.2341874427297712 0
1.867226511735552 0.1952052855713817 0
1.896675432450407 0.2220693837554481 0
1.905219535998045 0.1831999923604663 0
1.934566913109888 0.2099432005558069 0
1.943138417688568 0.1714148565239408 0
1.972296765163614 0.1980319614695035 0
1.963924570324198 0.2364385056906457 0
2.001432705528416 0.2243698148398433 0
2.009774770626958 0.1861487079204194 0
1.710044447314346 0.2456016009533042 0
1.571308772046156 0.250986640408993 0
2.03877088445479 0.2124997870859625 0
2.047054253947189 0.1744125413773356 0
1.003896516326481 0.2514918640883739 0
0.5451732116231718 0.2505400942666574 0
2.030409418655894 0.2506028336949524 0
0.3284154299164678 0.1968183688064316 0
0.3335568004681328 0.1705264952006161 0
0.2427884026280329 0.1580269719980132 0
1.321203994005905 0.2596941152465381 0
0.6509676953286065 0.2538853142859859 0
1.875843807591089 0.1562927971271492 0
1.70467592996669 0.1389593398663455 0
0.5393045121719563 0.153492602657654 0
1.24111136603765 0.1397659168895742 0
0.2483622536638426 0.3097113016186619 0
0.2273558211694602 0.3130849345147752 0
1.283085680161344 0.2718101886177238 0
2.018144507155485 0.1479777590533702 0
0.2502704844624283 0.2323120887549808 0
1.346901272805021 0.1424828354036664 0
1.426996239299222 0.2624148899680471 0
2.055388148341929 0.1362397192810138 0
1.888151927305342 0.2609505769576302 0
1.556767281259536 0.1424394886377872 0
1.452693994079852 0.145200551314314 0
1.177302213093044 0.2690837113182505 0
0.780567474659978 0.1414680291616511 0
0.3041668540675762 0.2980367631515793 0
1.029577794598892 0.1343716211662606 0
2.067497853116371 0.2388812547313377 0
2.059250960990969 0.2767713829533428 0
0.6761611999301366 0.13924218110163 0
1.139188650650919 0.281195179653581 0
0.923905213351874 0.1317116205398247 0
1.067677405018065 0.1222423771397612 0
0.3100618320956763 0.1802806140354406 0
0.3105446115035722 0.1552045071080987 0
0.3384265570578878 0.1443314511716004 0
0.3175072650043932 0.1273748297655938 0
0.3440629524648691 0.1165457376499395 0
0.2924303856047205 0.135665570932927 0
0.2975070871923678 0.1107277075019822 0
0.2743021578649583 0.1196021469128508 0
0.3046086554808587 0.2028238351783815 0
0.2776392901533555 0.09540075601856 0
0.2531648428083027 0.1070305580301714 0
2.086035293826838 0.162641183252229 0
2.022081482158067 0.2887482830691108 0
2.092769664931307 0.1246099243848726 0
2.02655184964259 0.1097645646278969 0
0.2803138053957839 0.2449521680154344 0
1.169022471821282 0.3090860500991578 0
0.2611932351800673 0.08101200037100106 0
0.2364778292689335 0.08969901453866087 0
1.808222889728504 0.1412712763496771 0
1.778648197632978 0.1142979934469382 0
1.782508550324793 0.2584210629176599 0
1.812054105423037 0.2853488047773031 0
1.773967915437059 0.2974715681147169 0
0.8611163753680247 0.259716446397333 0
0.8902045260519916 0.2886610978483228 0
0.8455573984927851 0.3008961818090096 0
1.489595082355061 0.1344192053610809 0
1.388876489545166 0.2745317662225156 0
1.418328265080889 0.3011657631045013 0
1.45860761981303 0.2897705285409459 0
1.38502046701492 0.1303647406234212 0
1.279229759743311 0.1276487322306185 0
1.250042866060452 0.1018491032024858 0
1.211618771823915 0.1130058927711564 0
1.206575048393831 0.29520799730216 0
0.9619645032889106 0.1195872673316299 0
0.9658116045311631 0.2635707705614022 0
0.9945702902373551 0.2914716926132571 0
0.9563646702878963 0.3068008486208443 0
1.033303987003886 0.2785964827058489 0
1.02395322696177 0.3186108363210025 0
1.062794906929218 0.3056066847609607 0
0.613791441271955 0.2653120493889754 0
0.6423726141369576 0.2920417231961849 0
0.7136332921502391 0.127152987699728 0
0.6798985058705482 0.2804485097046188 0
1.989181745125838 0.1215010845571182 0
1.313220460768421 0.2984740191691896 0
1.274235125932663 0.3115110379899335 0
1.816751799543763 0.1021879907875419 0
0.6051361212795108 0.3034183612096177 0
1.355080254321357 0.1038354941506729 0
0.2307130455927363 0.1103989523411672 0
0.2149145181571668 0.09798486412011582 0
2.096137343694097 0.2648484345716924 0
2.050828747095057 0.313820500699129 0
0.2415102239272388 0.3311673370406382 0
0.2650207948529394 0.3260516491593418 0
0.3833309429764322 0.2835575736604456 0
0.3764066297292807 0.3129405804156846 0
0.4033632649771273 0.305467617325318 0
0.3468370445733779 0.3182219825954516 0
0.3666013282128727 0.3413547405695431 0
0.3012961932473573 0.08512963897779054 0
2.105046964749481 0.2275184694082814 0
0.2874187469408285 0.1882127073390952 0
1.463441381504941 0.1046732805620165 0
1.502376189094246 0.1009983923393001 0
0.2564584414235048 0.352060840700045 0
0.2692124214875766 0.1430084670185028 0
0.6828991335034811 0.1002765841416838 0
0.6466908945990565 0.1127723589049325 0
0.3660058440368303 0.1340725235827885 0
0.372041696595055 0.105403531495586 0
0.3479761060681085 0.08615527427830981 0
1.03674958197846 0.09653110598263792 0
0.2121254048590747 0.1193082813518469 0
0.1969563635498298 0.1062127984546852 0
0.197930776302793 0.08518246702295428 0
0.1778411087704197 0.09739930829927404 0
0.179419530299624 0.06868634187460679 0
0.1572414854426271 0.08102785177208362 0
0.1551890526148261 0.1054560486847876 0
0.1355083650385829 0.0919564760175824 0
0.1340309590624288 0.1142671595931518 0
0.1140818108194129 0.1024939844531693 0
0.1153856879688845 0.1280300140772541 0
0.0939233343685279 0.1149277626231325 0
0.0925661314764059 0.1395008347067918 0
0.1117024248767125 0.1522671152754011 0
0.09140398523536633 0.1624297909311756 0
0.07514706948686264 0.151478241562124 0
0.108652772985461 0.173982581094183 0
0.09103234175902647 0.1846686482283764 0
0.1100970534778034 0.195303817919453 0
0.09064749717690344 0.2058871195158815 0
0.108223309465921 0.2165778029373573 0
0.08988738489911832 0.226994965703643 0
0.107613580509454 0.2372557219303935 0
0.0889365922016622 0.248675205058512 0
0.1092574777727714 0.2598241887414056 0
0.08764917330265762 0.2715600814471029 0
0.107631384595479 0.2837083411542758 0
0.08605854619458723 0.2958952206944128 0
0.1278314784451542 0.2721217205107336 0
0.1275533540093593 0.2948479380580963 0
0.1488196636935243 0.2830811953761891 0
0.1466705699534045 0.3057016097782484 0
0.168081072514543 0.2960315023844098 0
0.1661809121277914 0.3177371469276096 0
0.1449248010230076 0.3308743077150088 0
0.1676733580008641 0.348061514775434 0
0.1141278735345592 0.07803136986118599 0
0.06923866392762103 0.2374553317945144 0
0.1518254840337659 0.1270785868658867 0
0.3774523440985473 0.0742858594415553 0
0.396550773087253 0.09454097160474792 0
0.1865596306760877 0.3072197181782296 0
1.377321598937302 0.3099255554658212 0
1.394159110800983 0.09140130806782804 0
1.786628002480378 0.07560945957158614 0
0.2843410967803709 0.2090121428670725 0
0.2970627699431427 0.2210655780264549 0
1.130283177640288 0.318901962640245 0
1.157565727629903 0.3459656014188663 0
1.749460526427389 0.08978154216603036 0
0.2160870350193926 0.3339010365783358 0
0.1430891001000924 0.3578459210724401 0
0.3535546132258931 0.05405661065504886 0
0.1454089258751626 0.265757672926253 0
0.2859811104807815 0.1555348792256301 0
0.9330241268179373 0.09452519508089147 0
0.8944693321321509 0.1051125705528331 0
0.9710836336363019 0.08186377317626671 0
0.6707055083614823 0.3169418701782913 0
0.7081119788596135 0.306806746074909 0
1.804802346867795 0.3229785977435872 0
1.841756764290176 0.3118602000709816 0
1.833707943607218 0.3479995765309585 0
0.1951236165812609 0.1241109286246359 0
0.06565817012808159 0.1983946381036165 0
0.7221055333086692 0.08844881036508005 0
0.1246503163094657 0.2084532297386535 0
0.1248010446955558 0.225771558090693 0
0.1261259965095936 0.2451357645902623 0
1.054396599138861 0.344450900431325 0
1.220122450037595 0.07374354571353173 0
1.182537700616348 0.08754068641838837 0
1.173540221629092 0.1252440162973761 0
1.144365275127693 0.0994981097139911 0
1.288381682644433 0.09042453898940821 0
0.1265229137454127 0.1657987347542147 0
0.1291186105805736 0.1448620283711189 0
0.167960694795913 0.2499109019352601 0
0.1691611607431113 0.2639384955024892 0
0.183163802899289 0.269199726628549 0
0.1497871469004038 0.2317678494153378 0
0.2080579514349161 0.1409373896075939 0
0.1407652668308332 0.1918328779299691 0
0.1504269274907493 0.167895685041087 0
0.1684828211046412 0.1497558994706929 0
1.074110196047049 0.08617159053412404 0
0.2559671860113045 0.2202245342596606 0
0.2420706231467445 0.2419698979808264 0
0.2549983914341369 0.2438935356571345 0
0.8811217986626622 0.3266606352301522 0
2.122226095467933 0.1499294425069467 0
0.2566651687181246 0.1279202148661726 0
0.2590086368755867 0.1933513234142938 0
0.2322853701018514 0.1497342829670945 0
0.230924450251341 0.1363755106064087 0
0.2504379098717928 0.1683939261557355 0
0.2633272089720293 0.1695932773875195 0
0.9028939242006773 0.06576416976259265 0
0.8648198724718934 0.07788848383286547 0
0.247812387048045 0.2548836737831959 0
0.3393819610671045 0.3467022404194693 0
0.1701837607576335 0.1186814631869183 0
1.997002867695466 0.08629813080891079 0
1.959960820316305 0.09507016686224778 0
2.013204233076914 0.3253826886520839 0
1.984568119139605 0.3004812577852167 0
1.976525832241641 0.3385098122533828 0
1.946928557482181 0.3125971918300708 0
0.1801371777504527 0.03577426878412109 0
0.6995258242603453 0.3465177070587273 0
0.1327331089350321 0.1809612403660729 0
0.1158856300395186 0.3427182937361195 0
0.2590407521847856 0.0315857842252462 0
0.02664704563464292 0.2416426285331998 0
1.447470379983707 0.3350750837702544 0
1.487690766078724 0.316436023780462 0
0.2331226384935708 0.2526501538913871 0
0.1451157084439552 0.2437687618754149 0
0.3202040624417424 0.2249824801334599 0
0.09989119817490597 0.03091407858018423 0
1.871136214121664 0.3391914156027021 0
2.130053633158117 0.108660921179256 0
2.101537625260122 0.08769878308443278 0
2.132826312333482 0.2538983565195087 0
2.125836119332822 0.2915213001026366 0
0.1931314828867139 0.2589583966934971 0
2.166900698147719 0.09164223484705081 0
0.1828066154057177 0.378801907008731 0
0.08425841824581541 0.06219078206464608 0
1.942423692029842 0.351524967522338 0
0.1684673136599644 0.1360772431047243 0
1.825649938542295 0.06216760076044554 0
1.854862720116561 0.09007959329486565 0
1.891906368242553 0.06555497123737408 0
0.03207729245366413 0.3171677724283659 0
0.06090330768218095 0.3365046483330958 0
2.034212942376304 0.06912777283278264 0
0.2392763775505378 0.06104178330583658 0
0.02719098540611034 0.1680016709870327 0
0.03369199920811119 0.13152945318113 0
0.05466855342578036 0.1083509308594709 0
0.06195725902948038 0.372770863895622 0
2.149817500266953 0.3195134384809508 0
2.114842638519445 0.3286067418780195 0
0.2791270513334422 0.2262958419739395 0
0.4603769762674149 0.3759880759631876 0
0.4796354639103164 0.3426554284203513 0
0.518734846557138 0.3418799852349217 0
0.4985453201144392 0.3094467049715354 0
0.5360947218568735 0.3087515974198646 0
0.462229727765601 0.311246997042711 0
0.4818734068422132 0.2712744233833526 0
0.443204763202803 0.3439708760195466 0
0.3780881471762615 0.3750533855853668 0
0.403010847723357 0.3386426881238372 0
0.6926742864150881 0.0617606571275499 0
0.155974524629277 0.1438203671521991 0
2.159707037489005 0.1680170998846936 0
2.124188461036915 0.1888315564522229 0
0.5395909295070256 0.3756392162502685 0
0.7392224735944787 0.3315174715351702 0
0.7764264129508143 0.3519952656026059 0
0.7735238607910246 0.3136709796845721 0
0.8093828582610068 0.330575662983371 0
0.8062660149264583 0.2923090897787185 0
0.4588630176670982 0.03398457909590608 0
0.4424021211316154 0.06683777709827673 0
0.4778785834058826 0.06647470623404997 0
0.460866964271926 0.0996234679053136 0
0.4962102096767771 0.09853441121209028 0
0.4754319392225447 0.1365683619151093 0
0.4433273109937442 0.1293522655839938 0
0.2569381194907157 0.1568355731727996 0
1.766573739080262 0.3420193555447268 0
1.737070276541017 0.3107310683285571 0
1.727514907621253 0.3480476287965232 0
1.698485895681961 0.3201029906484876 0
0.2851573168853273 0.3454636461027558 0
0.2693429946734439 0.1839691291911872 0
0.5568196792778567 0.3421518234543536 0
0.06395851925321835 0.2790552347924927 0
0.03314934577931804 0.058685007852979 0
0.5190091016640264 0.2775259456879827 0
0.139452525514643 0.206047804708242 0
0.386589930099963 0.04226914991853553 0
1.020210165729807 0.3569814222864756 0
0.9870544007009571 0.3339917339599459 0
0.9487111517955922 0.3471453884567456 0
0.9184851321540213 0.3173040379420111 0
0.9093154190691038 0.3561015277429271 0
2.096919633432598 0.03262316636820238 0
0.5150317164926402 0.0661381169854497 0
0.5342249134702 0.09870091835597662 0
1.909965404939795 0.3268825844103533 0
2.078098951855264 0.2007974653845615 0
2.060534917716556 0.3757774488898422 0
0.1941173863167945 0.1385104311975936 0
0.577598793053657 0.2744223089460958 0
1.926129798155469 0.2484524969938184 0
2.087943130478133 0.3026909766266616 0
2.076681015555999 0.3396779743355432 0
2.019028388922079 0.03165010727693801 0
1.945347834357709 0.03258644992092352 0
1.913311352572919 0.1429101129788397 0
1.884539740185206 0.1174289093547255 0
1.923449083695439 0.1037789427132907 0
1.846329997513226 0.1292470092790203 0
1.85009972607464 0.272961384566443 0
0.8563765119003743 0.1170106836597252 0
0.8275217970223705 0.09231116074285078 0
1.837759027914231 0.1682214887601626 0
1.75294107305705 0.2315000052031753 0
1.13542549852904 0.1373622553462918 0
1.203013548954829 0.1519437815084926 0
1.10964198692781 0.2542424063767525 0
1.137870371966382 0.03400266802981745 0
1.100000466359957 0.03464074689671544 0
1.580104459684006 0.03458070670451698 0
1.60001741596055 0.06927197039024918 0
1.640002889865853 0.06928034268010849 0
1.619103072685865 0.102690285022375 0
1.654554908635631 0.1063872002899961 0
1.681734992119518 0.07479662047991957 0
1.578860358965833 0.1042504499329009 0
1.560561585082294 0.06890271183520603 0
1.540657755281974 0.1021143214540312 0
1.499979750331647 0.03440954313197245 0
1.260075757433278 0.3764276544601721 0
1.244584186737264 0.3436225523748035 0
1.201952626378153 0.3368435801261601 0
1.419932043292873 0.03266377613680514 0
1.433688350181158 0.07255798637368421 0
1.335535295682443 0.03794789132864407 0
0.625187215633911 0.3702018968767524 0
1.619789646396274 0.3754804886088769 0
1.638634145497704 0.3415067150882936 0
1.599737399467658 0.3408698772192318 0
1.619728520877059 0.3072782812977893 0
1.579954887633856 0.3076399768868955 0
1.659399793716234 0.3072858302907212 0
1.641280767539812 0.2684832909398684 0
1.682381899510171 0.2780906158661842 0
1.609512459819577 0.2404000794151444 0
1.579971420701955 0.3753755056213887 0
0.8169296898855408 0.3714385961979755 0
1.699999999998613 0.03464101615145132 0
1.339678132157482 0.3757817442002738 0
1.314835593785015 0.3380810028027101 0
1.266879328253521 0.03205630064716568 0
1.420770896525082 0.3750211363360608 0
1.784611134430959 0.03668013615217203 0
1.021162050990469 0.0332232498926636 0
0.976899086192173 0.04036500660222947 0
1.500000000001696 0.3767248967923464 0
1.519465961140336 0.3415822216668457 0
0.7797542028810023 0.03377434067192028 0
0.7575545456227651 0.07099468092815291 0
0.8636346817441781 0.03811686888414684 0
0.5798664370321678 0.03521309200142553 0
0.5574818337099591 0.06923250575191037 0
0.5778766206069177 0.1046180595808771 0
0.6003169249348114 0.07006423312663421 0
0.6215744894587605 0.03525895761760895 0
0.6463862382246333 0.07256075603304923 0
1.559854944824492 0.3411506127783883 0
1.535818970697993 0.3042697660541665 0
1.500823401694798 0.2775668271326977 0
1.660289646996569 0.03555983257715512 0
1.665650114138846 0.1462737432644181 0
1.466937584575632 0.2503752820448072 0
1.520368123186515 0.1600368482577372 0
1.359323045812238 0.2475772854377982 0
1.414574294488573 0.1573183110336376 0
1.253533731065641 0.244856612934878 0
1.423929599678404 0.1169193629958169 0
1.350339923772873 0.2854957975464736 0
1.308782668587204 0.1546008202186094 0
1.215371663970022 0.2568321703810446 0
1.317381274785183 0.1159091741455888 0
1.164891206532233 0.1640339717929121 0
1.326464778359868 0.07969060653137343 0
1.24425677745647 0.2819476732029426 0
1.0419758404185 0.2394208342369814 0
1.097237972542868 0.1492306756003577 0
0.7532706526750658 0.2575936333830002 0
1.740956922207273 0.1268633147670802 0
1.713907493565864 0.1015959197616583 0
0.9363080194647473 0.2366123603053327 0
1.092504142171416 0.3323447798427727 0
1.071482164489479 0.2664091310513044 0
1.100982504801522 0.293116690720936 0
1.105545942635078 0.1110002081667681 0
0.9914897680332981 0.1464995548189323 0
0.8858906779970812 0.1438911581370974 0
1.744431780982179 0.2705488170891481 0
0.9997513883220196 0.1079764063636617 0
0.9275721918231148 0.2769382890763695 0
0.8307937638847266 0.2336969827456059 0
0.818553988626245 0.1295557299009986 0
2.064089946766225 0.09886344034331328 0
0.7889136066646919 0.1026936021060576 0
0.4437179639893398 0.2781797474399541 0
0.6884132151369178 0.2423100853106011 0
0.7428499980651682 0.1536370090122945 0
0.6390100214858466 0.1515543881343799 0
0.6102246565003644 0.128616931442043 0
1.980747376382828 0.1597184256873095 0
1.993117893487852 0.2625229770003316 0
0.2057811169810017 0.05984740184431928 0
0.6333471252710813 0.3283909789216189 0
0.3147487579262094 0.3238817035540044 0
0.7509374084119186 0.1140658532121607 0
1.113778480393272 0.0693979497170449 0
1.222074053432123 0.03694388449614427 0
0.7163071006314192 0.2687017682797602 0
0.5855578022895478 0.2378209060547607 0
1.951631465963649 0.1323989315537911 0
0.5037947296181815 0.1632967809873276 0
1.955419631222405 0.2745422407802757 0
2.168091102582914 0.2422727272722958 0
1.87969664566981 0.2995827691359821 0
0.143240819778374 0.1556405581858563 0
0.2653309266958546 0.232738390620177 0
1.699716623625944 0.3700160713242903 0
1.9177153274625 0.2871679766846884 0
0.1995012645234693 0.2705594171955915 0
0.1883170892553984 0.2863735760182627 0
0.4983774227995673 0.03343459441099068 0
0.2752023387603702 0.0571368753798346 0
0.1072175520226668 0.3080719324791273 0
2.144345327305063 0.3784523781991304 0
0.4544217253337446 0.2435983312767579 0
0.3948499529891765 0.1213862022372203 0
1.977255370923236 0.3751638559925355 0
0.8448609830231505 0.3401013702194737 0
1.404698530970253 0.3392395095841694 0
0.5948693883771956 0.3381426547333928 0
1.85782120290469 0.3769841335427278 0
0.3826386659526285 0.1789363151897274 0
0.2999422148642888 0.2401558267352457 0
1.60005589539261 0.1371631355555286 0
2.169124858714008 0.05590909090897399 0
0.06125660851494825 0.08264427250408711 0
1.00742571862326 0.07026085326880575 0
0.2705535199300882 0.2000000000027884 0
0.2676831562599247 0.3045487915582382 0
0.2878058736326755 0.3170795098825592 0
0.2613215551185052 0.25699004006858 0
1.138641133893266 0.3773413561528383 0
1.181957002536515 0.376680543748887 0
0.1588806204661645 0.05594431408154727 0
0.3250391354143372 0.0668073022801841 0
0.3913172309147324 0.2563496748770152 0
0.3604307044899925 0.1611447678807364 0
1.357022884252529 0.3424368062769447 0
1.365254186606072 0.06755587584606916 0
0.8019121879557567 0.06550577081757333 0
0.2469494058608037 0.1423560329343501 0
0.2690452278732807 0.2158381914793359 0
0.5747537363468685 0.1413226563445421 0
0.2003729779456803 0.353908130841133 0
0.1367632633083998 0.2318024237815937 0
0.2688973715866875 0.3804958837287595 0
1.523760453687049 0.06711094705939276 0
1.90604706181945 0.03354262475946881 0
0.3226738249133504 0.1008635014848005 0
0.3400000000009485 0.3823577847677096 0
0.5164530177748783 0.129075767112839 0
0.4073026000797046 0.06366783560527953 0
0.06295023646725137 0.308778279754613 0
0.08734671098206145 0.3234743084589379 0
1.053983979843448 0.3800485310958907 0
0.2787320864786206 0.1711689130408179 0
1.724183835351476 0.06519630901061051 0
0.2188761236520866 0.07875110616637736 0
0.9000570625806414 0.02922081869152261 0
1.4804254506818 0.06899846983106986 0
0.09416645883531438 0.08996128989866366 0
0.3285879541564297 0.2957971877948367 0
0.7444298172307491 0.2933117307808418 0
0.0701243760089507 0.1720496174259025 0
0.2174253030478275 0.1321014085410275 0
1.278746132778117 0.3491759489304194 0
0.1371543091219844 0.06579843639963663 0
0.08521858154671663 0.350165419654468 0
0.2059816216677874 0.315475553487107 0
0.1904759225729339 0.3293838501313081 0
2.13745766281657 0.219793369086636 0
0.1822837522101314 0.1293621467696977 0
0.07286203889459573 0.2184058698251844 0
0.7010971586348335 0.3838604470969265 0
0.07103890734074218 0.259242086263999 0
1.53587697873532 0.2631684779249764 0
2.137136817164613 0.07014699259247299 0
0.1695519671657773 0.279337554104806 0
1.740000000000815 0.381275110892439 0
0.3326597214864071 0.02986657411164405 0
0.2291841967474076 0.3543797204741979 0
1.822052214594027 0.02669775061281622 0
0.04887847834125435 0.2232972940082667 0
2.076598234785748 0.0643984359817813 0
1.714482860005935 0.2850150185771362 0
1.596964324218133 0.2761638693852289 0
0.1284503814095914 0.3164428163533201 0
0.2188351842460646 0.2961178096069288 0
0.1269265570860273 0.1941946843648615 0
0.7011245392109002 0.02915214257809734 0
2.037181164272469 0.347786447617016 0
0.4108509980490877 0.2768605013250534 0
0.2016837364204977 0.2976653009666855 0
1.157425152114625 0.06426026196953268 0
1.932988771450378 0.06596671619215931 0
0.5695120500155424 0.3078429648541787 0
1.820000000000618 0.3826129278941727 0
1.260440673685684 0.06854417219066417 0
1.04469618910945 0.0621409382527674 0
0.1542417312210936 0.2547187147997794 0
1.670994758917214 0.3429999181128928 0
0.04923988016841693 0.1799394937999321 0
0.8275264830136888 0.2667678930582894 0
0.1574330306012741 0.2706274600019168 0
1.480000000001763 0.3489134453590685 0
0.3888885785834895 0.1506450517965627 0
0.3102420394059063 0.3497781190221995 0
1.633227051062065 0.131436830717701 0
0.1432599238183457 0.1397379055028407 0
1.940000000000327 0.38405213904653 0
0.444280367174882 0.1581620025233236 0
0.4266595591373545 0.1029914846541178 0
0.2846367536142946 0.2969970131400993 0
0.4311316086897242 0.313797830197504 0
0.2675621084613258 0.2467323472583114 0
0.1277348775862843 0.3824402555760031 0
0.7800000000020552 0.3848219142023703 0
1.970004220104187 0.06225855064196934 0
1.399999999997824 0.05979986202414789 0
0.9374690117217952 0.3823257460768192 0
0.7748822751299687 0.281591845524245 0
1.119735475210617 0.3502716937801218 0
0.1171675102502459 0.05318959051410885 0
0.1363087411277883 0.2540080652687738 0
0.8383192646289011 0.06050415150018786 0
0.02662986915582534 0.02611975025542513 0
0.1339596304066165 0.2174618624996515 0
1.339692553379215 0.3161368682062553 0
0.5476191864065043 0.2814995925137918 0
0.1394327332468643 0.1699527057033439 0
0.05200679053064945 0.2533730049897099 0
0.2969705208339121 0.06390604688344749 0
0.2708381893819447 0.159228221969054 0
0.02758160254362413 0.3832272824144469 0
0.2404432377066882 0.1246178931941347 0
1.560000537392339 0.282194947362683 0
1.521707143880004 0.1287282413692011 0
0.1562449976635165 0.377502630653797 0
1.759213010134908 0.05872777732262463 0
0.6205470636436909 0.09719542221635283 0
2.174061302199483 0.3839373858477551 0
2.172528661075614 0.02665438589662001 0
1.01898145463275 0.3867455593816046 0
1.801288024250568 0.3549671896347774 0
0.9445095101975364 0.06473931524304667 0
0.5485225600741642 0.1254420008103778 0
0.07531319752285244 0.1051013170069885 0
2.13936806370977 0.3477195476072895 0
0.06741815907187608 0.1290591101697669 0
1.233315704488044 0.312327556848798 0
0.5110662328096331 0.2497953564137454 0
0.4176507093889282 0.1391568718708984 0
0.05174914959349396 0.154537874062243 0
0.2421044960987345 0.3753170793532865 0
0.7224365747819173 0.05806408246766053 0
0.9000000000023662 0.3879471460308262 0
0.2408757205896933 0.2651635960115379 0
0.6589487256564661 0.3463728135527447 0
0.1231132313645178 0.2588730381710313 0
0.1197348738992356 0.1834078855443919 0
0.3645783290793271 0.0258552557096374 0
0.2949508254825369 0.1704385219142557 0
1.67305521307889 0.2469536052318789 0
0.1851769901786754 0.1149234201759876 0
0.05774097136772702 0.05926240939589369 0
0.1322084059769537 0.1303652885509865 0
2.001466541705259 0.3531853383510277 0
0.2053699324479747 0.1309936878645395 0
1.194677555600941 0.0597163738649959 0
0.2263262882915335 0.124560409206917 0
2.110720603504749 0.06049434357721101 0
1.684822374253977 0.1138832782598348 0
2.000288334621438 0.05580014318867723 0
1.863525154556205 0.06292499323967644 0
0.2824603156350124 0.07651706352612674 0
1.298456666212135 0.05942867886193558 0
1.080000369788221 0.05493561597523392 0
0.3555298535379978 0.3627162563003603 0
2.178935883359263 0.316987821401745 0
$EndNodes
$Elements
18 1913 1 1913
0 1 15 1
1 1 
0 2 15 1
2 2 
0 3 15 1
3 3 
0 4 15 1
4 4 
0 5 15 1
5 5 
0 6 15 1
6 6 
0 7 15 1
7 7 
0 8 15 1
8 8 
0 9 15 1
9 9 
1 1 1 55
10 1 10 
11 10 11 
12 11 12 
13 12 13 
14 13 14 
15 14 15 
16 15 16 
17 16 17 
18 17 18 
19 18 19 
20 19 20 
21 20 21 
22 21 22 
23 22 23 
24 23 24 
25 24 25 
26 25 26 
27 26 27 
28 27 28 
29 28 29 
30 29 30 
31 30 31 
32 31 32 
33 32 33 
34 33 34 
35 34 35 
36 35 36 
37 36 37 
38 37 38 
39 38 39 
40 39 40 
41 40 41 
42 41 42 
43 42 43 
44 43 44 
45 44 45 
46 45 46 
47 46 47 
48 47 48 
49 48 49 
50 49 50 
51 50 51 
52 51 52 
53 52 53 
54 53 54 
55 54 55 
56 55 56 
57 56 57 
58 57 58 
59 58 59 
60 59 60 
61 60 61 
62 61 62 
63 62 63 
64 63 2 
1 2 1 11
65 2 64 
66 64 65 
67 65 66 
68 66 67 
69 67 68 
70 68 69 
71 69 70 
72 70 71 
73 71 72 
74 72 73 
75 73 3 
1 3 1 55
76 3 74 
77 74 75 
78 75 76 
79 76 77 
80 77 78 
81 78 79 
82 79 80 
83 80 81 
84 81 82 
85 82 83 
86 83 84 
87 84 85 
88 85 86 
89 86 87 
90 87 88 
91 88 89 
92 89 90 
93 90 91 
94 91 92 
95 92 93 
96 93 94 
97 94 95 
98 95 96 
99 96 97 
100 97 98 
101 98 99 
102 99 100 
103 100 101 
104 101 102 
105 102 103 
106 103 104 
107 104 105 
108 105 106 
109 106 107 
110 107 108 
111 108 109 
112 109 110 
113 110 111 
114 111 112 
115 112 113 
116 113 114 
117 114 115 
118 115 116 
119 116 117 
120 117 118 
121 118 119 
122 119 120 
123 120 121 
124 121 122 
125 122 123 
126 123 124 
127 124 125 
128 125 126 
129 126 127 
130 127 4 
1 4 1 11
131 4 128 
132 128 129 
133 129 130 
134 130 131 
135 131 132 
136 132 133 
137 133 134 
138 134 135 
139 135 136 
140 136 137 
141 137 1 
1 5 1 7
142 6 138 
143 138 139 
144 139 140 
145 140 141 
146 141 142 
147 142 143 
148 143 7 
1 6 1 7
149 7 144 
150 144 145 
151 145 146 
152 146 147 
153 147 148 
154 148 149 
155 149 8 
1 7 1 7
156 8 150 
157 150 151 
158 151 152 
159 152 153 
160 153 154 
161 154 155 
162 155 9 
1 8 1 7
163 9 156 
164 156 157 
165 157 158 
166 158 159 
167 159 160 
168 160 161 
169 161 6 
2 1 2 1744
170 572 208 707 
171 522 213 876 
172 213 522 857 
173 184 547 647 
174 501 689 732 
175 407 621 622 
176 724 411 727 
177 787 569 828 
178 175 527 746 
179 591 822 869 
180 392 616 652 
181 396 602 797 
182 723 573 724 
183 522 847 857 
184 201 638 827 
185 67 68 615 
186 712 573 723 
187 527 175 829 
188 822 660 869 
189 621 407 792 
190 430 429 705 
191 572 707 793 
192 793 166 812 
193 211 548 579 
194 430 705 840 
195 784 490 852 
196 634 633 781 
197 634 781 875 
198 661 663 774 
199 592 201 827 
200 504 389 576 
201 548 211 615 
202 169 578 651 
203 766 595 832 
204 590 591 662 
205 555 556 715 
206 597 598 923 
207 597 197 598 
208 589 502 708 
209 602 504 797 
210 616 446 652 
211 634 697 699 
212 587 169 651 
213 398 595 786 
214 818 508 855 
215 253 609 789 
216 589 708 856 
217 528 771 872 
218 662 591 663 
219 499 490 784 
220 597 923 927 
221 619 621 702 
222 135 197 597 
223 634 699 859 
224 498 826 886 
225 533 568 934 
226 547 184 792 
227 451 630 815 
228 681 369 683 
229 771 706 872 
230 555 715 833 
231 216 601 922 
232 689 448 732 
233 201 571 905 
234 389 351 576 
235 540 641 863 
236 504 576 797 
237 549 451 815 
238 768 635 804 
239 212 13 566 
240 420 645 646 
241 576 235 797 
242 420 644 645 
243 613 452 721 
244 631 171 853 
245 16 198 570 
246 315 724 727 
247 573 411 724 
248 824 195 881 
249 442 866 888 
250 815 552 909 
251 215 595 766 
252 250 628 775 
253 500 793 812 
254 212 566 808 
255 198 809 906 
256 595 570 786 
257 780 396 889 
258 826 624 886 
259 866 759 888 
260 601 216 658 
261 628 250 885 
262 602 396 780 
263 558 824 881 
264 474 471 533 
265 768 373 836 
266 609 759 789 
267 569 787 861 
268 68 164 615 
269 443 768 836 
270 211 67 615 
271 19 642 935 
272 570 198 786 
273 447 389 503 
274 201 131 571 
275 857 495 905 
276 381 389 447 
277 462 566 766 
278 633 631 853 
279 581 210 582 
280 126 127 599 
281 441 442 612 
282 391 549 909 
283 24 25 720 
284 646 406 754 
285 663 561 774 
286 191 819 901 
287 419 422 644 
288 619 702 891 
289 689 501 893 
290 381 351 389 
291 444 441 612 
292 392 548 616 
293 177 567 618 
294 215 570 595 
295 388 386 451 
296 557 229 931 
297 447 503 802 
298 636 447 802 
299 464 461 559 
300 434 391 909 
301 615 164 616 
302 828 569 842 
303 488 486 511 
304 661 662 663 
305 466 464 496 
306 238 235 576 
307 220 577 586 
308 471 468 534 
309 386 382 512 
310 173 613 721 
311 478 476 524 
312 714 758 769 
313 691 767 932 
314 566 462 808 
315 611 444 612 
316 609 253 925 
317 521 458 942 
318 200 569 890 
319 200 126 599 
320 214 818 855 
321 719 720 721 
322 496 559 588 
323 391 388 549 
324 435 434 458 
325 139 192 541 
326 206 567 848 
327 582 210 600 
328 587 564 791 
329 397 416 687 
330 157 190 535 
331 220 11 577 
332 515 710 801 
333 452 453 721 
334 231 805 889 
335 533 779 904 
336 388 451 549 
337 643 527 829 
338 579 580 851 
339 65 66 584 
340 369 681 798 
341 809 198 854 
342 569 509 890 
343 399 391 434 
344 496 464 559 
345 567 177 848 
346 684 821 834 
347 780 544 816 
348 567 206 932 
349 523 714 769 
350 872 706 950 
351 459 458 521 
352 763 718 914 
353 779 541 904 
354 150 249 544 
355 474 533 934 
356 130 201 592 
357 852 488 878 
358 18 19 935 
359 540 6 641 
360 635 768 881 
361 478 524 525 
362 509 493 912 
363 533 534 779 
364 19 163 642 
365 566 215 766 
366 641 524 863 
367 493 585 912 
368 184 647 930 
369 706 178 950 
370 643 829 917 
371 482 480 526 
372 537 583 783 
373 215 15 570 
374 482 526 933 
375 14 215 566 
376 535 536 874 
377 396 231 889 
378 352 351 381 
379 539 7 654 
380 420 419 644 
381 587 791 884 
382 229 557 805 
383 494 586 897 
384 718 719 914 
385 874 536 878 
386 788 216 922 
387 551 552 815 
388 174 555 833 
389 710 515 919 
390 716 24 720 
391 472 471 474 
392 719 716 720 
393 25 173 720 
394 450 635 820 
395 420 646 754 
396 351 241 576 
397 145 199 551 
398 767 691 794 
399 547 406 646 
400 622 298 877 
401 923 473 927 
402 132 213 571 
403 690 738 950 
404 649 167 717 
405 702 621 792 
406 162 611 612 
407 480 525 526 
408 422 643 644 
409 241 238 576 
410 650 649 717 
411 574 557 931 
412 66 211 584 
413 596 134 597 
414 616 164 845 
415 790 886 926 
416 451 386 512 
417 480 478 525 
418 213 133 596 
419 206 691 932 
420 298 622 895 
421 387 386 388 
422 22 167 785 
423 707 166 793 
424 12 212 577 
425 545 557 574 
426 211 579 584 
427 14 15 215 
428 539 654 942 
429 318 320 700 
430 12 13 212 
431 197 639 800 
432 555 174 919 
433 717 716 719 
434 559 461 938 
435 512 382 936 
436 629 628 885 
437 635 195 820 
438 16 17 198 
439 122 123 214 
440 223 574 931 
441 584 579 851 
442 223 196 574 
443 475 474 476 
444 373 768 804 
445 210 581 777 
446 246 241 351 
447 99 806 807 
448 533 471 534 
449 470 468 471 
450 603 162 610 
451 208 572 879 
452 134 135 597 
453 132 133 213 
454 537 784 852 
455 506 397 687 
456 178 690 950 
457 663 591 869 
458 120 121 195 
459 117 162 603 
460 608 604 610 
461 202 594 659 
462 719 721 914 
463 218 592 593 
464 125 126 200 
465 843 508 844 
466 214 123 585 
467 496 588 614 
468 599 127 908 
469 130 131 201 
470 135 136 197 
471 683 369 911 
472 384 382 386 
473 821 449 834 
474 549 815 909 
475 586 494 835 
476 484 482 486 
477 487 486 488 
478 674 673 770 
479 490 488 852 
480 191 538 819 
481 503 504 602 
482 120 195 824 
483 578 169 795 
484 759 265 789 
485 838 876 927 
486 604 603 610 
487 463 461 464 
488 399 434 435 
489 167 649 785 
490 605 607 637 
491 723 724 850 
492 187 114 617 
493 15 16 570 
494 13 14 566 
495 390 388 391 
496 612 442 888 
497 611 119 824 
498 571 857 905 
499 323 698 700 
500 610 162 612 
501 345 318 700 
502 320 323 700 
503 726 679 946 
504 617 605 637 
505 131 132 571 
506 686 430 840 
507 710 709 801 
508 790 498 886 
509 218 129 592 
510 407 622 877 
511 535 190 536 
512 233 231 396 
513 465 464 466 
514 534 468 940 
515 537 190 583 
516 435 458 459 
517 187 617 637 
518 611 824 952 
519 158 157 535 
520 140 139 541 
521 163 623 624 
522 117 118 162 
523 19 20 163 
524 687 416 924 
525 133 134 596 
526 640 609 925 
527 151 150 544 
528 163 20 623 
529 10 11 220 
530 477 476 478 
531 214 585 818 
532 129 130 592 
533 138 6 540 
534 424 655 773 
535 162 118 611 
536 207 116 603 
537 602 780 816 
538 146 145 551 
539 114 115 617 
540 314 443 836 
541 207 603 604 
542 680 744 946 
543 11 12 577 
544 123 124 585 
545 144 7 539 
546 216 653 658 
547 591 189 822 
548 184 702 792 
549 246 351 352 
550 626 628 629 
551 606 604 608 
552 174 710 919 
553 537 783 784 
554 352 381 382 
555 585 493 818 
556 679 726 882 
557 197 136 639 
558 169 587 884 
559 189 589 856 
560 819 525 901 
561 806 506 807 
562 524 476 863 
563 470 471 472 
564 347 392 652 
565 655 349 773 
566 544 249 816 
567 547 646 647 
568 458 434 944 
569 384 386 387 
570 177 618 619 
571 473 838 927 
572 503 389 504 
573 862 843 867 
574 606 608 609 
575 582 600 601 
576 430 686 924 
577 116 117 603 
578 770 673 868 
579 699 344 859 
580 511 486 898 
581 432 794 870 
582 115 116 207 
583 606 609 640 
584 62 217 648 
585 65 584 799 
586 594 202 858 
587 118 119 611 
588 548 615 616 
589 495 849 905 
590 445 809 823 
591 720 173 721 
592 800 586 835 
593 643 186 644 
594 346 347 652 
595 775 628 825 
596 738 690 813 
597 216 76 653 
598 654 194 846 
599 448 689 834 
600 525 524 901 
601 575 526 819 
602 569 200 842 
603 578 519 778 
604 650 717 718 
605 128 129 218 
606 20 21 623 
607 624 625 626 
608 651 578 778 
609 472 474 475 
610 361 843 862 
611 21 22 785 
612 508 818 844 
613 646 645 647 
614 758 714 814 
615 115 207 617 
616 551 199 552 
617 62 63 217 
618 60 202 659 
619 503 602 816 
620 392 394 548 
621 436 446 581 
622 467 466 468 
623 436 375 446 
624 605 604 606 
625 800 639 939 
626 202 61 648 
627 599 593 842 
628 590 662 664 
629 75 76 216 
630 619 618 620 
631 77 193 653 
632 607 606 640 
633 338 339 340 
634 744 680 831 
635 626 627 628 
636 431 590 664 
637 400 431 664 
638 350 346 375 
639 347 367 392 
640 376 375 436 
641 349 640 925 
642 342 343 346 
643 548 394 579 
644 61 62 648 
645 582 601 657 
646 228 225 229 
647 261 424 773 
648 624 623 625 
649 58 181 660 
650 346 343 347 
651 341 340 342 
652 484 486 487 
653 77 78 193 
654 336 337 338 
655 76 77 653 
656 718 763 817 
657 60 61 202 
658 479 478 480 
659 598 197 800 
660 644 186 645 
661 375 346 652 
662 392 367 394 
663 800 835 921 
664 436 581 582 
665 338 337 339 
666 338 341 656 
667 657 601 658 
668 610 612 888 
669 207 604 605 
670 342 346 350 
671 342 340 343 
672 58 59 181 
673 338 340 341 
674 336 338 656 
675 400 664 668 
676 609 608 759 
677 424 432 655 
678 666 514 751 
679 679 680 946 
680 437 376 657 
681 274 666 751 
682 181 59 659 
683 167 716 717 
684 218 593 599 
685 57 58 660 
686 452 377 453 
687 334 335 336 
688 124 890 912 
689 330 400 668 
690 437 657 658 
691 619 620 621 
692 336 335 337 
693 209 713 714 
694 335 332 668 
695 332 330 668 
696 446 375 652 
697 23 24 716 
698 167 23 716 
699 368 336 656 
700 489 488 490 
701 809 456 823 
702 333 332 334 
703 667 666 756 
704 59 60 659 
705 334 332 335 
706 276 405 755 
707 519 403 665 
708 621 620 622 
709 334 336 368 
710 331 330 332 
711 333 334 665 
712 331 332 333 
713 334 368 665 
714 350 375 376 
715 514 379 751 
716 395 594 757 
717 556 514 666 
718 347 363 367 
719 330 329 400 
720 431 589 590 
721 184 107 702 
722 107 108 702 
723 518 403 519 
724 556 666 667 
725 387 388 390 
726 328 331 669 
727 331 402 669 
728 403 333 665 
729 670 530 737 
730 290 670 737 
731 586 577 897 
732 276 299 405 
733 402 333 403 
734 401 329 743 
735 400 329 401 
736 328 329 330 
737 30 31 715 
738 170 30 715 
739 328 330 331 
740 453 377 762 
741 513 379 514 
742 400 401 431 
743 507 401 743 
744 326 328 669 
745 520 519 578 
746 359 296 671 
747 531 530 670 
748 344 669 752 
749 344 326 669 
750 35 182 709 
751 34 35 709 
752 296 294 671 
753 53 54 708 
754 188 53 708 
755 529 530 531 
756 529 415 530 
757 174 33 710 
758 34 709 710 
759 507 743 744 
760 686 172 687 
761 518 519 520 
762 415 359 671 
763 530 671 737 
764 37 38 673 
765 38 183 673 
766 182 36 674 
767 530 415 671 
768 37 673 674 
769 696 722 723 
770 693 695 697 
771 694 701 722 
772 165 692 693 
773 685 172 686 
774 696 694 722 
775 295 297 731 
776 693 692 694 
777 528 415 529 
778 89 168 701 
779 33 34 710 
780 693 694 695 
781 704 203 705 
782 701 168 722 
783 88 89 701 
784 40 41 706 
785 41 178 706 
786 36 37 674 
787 682 681 683 
788 168 711 712 
789 676 681 682 
790 688 176 689 
791 722 712 723 
792 676 678 681 
793 675 676 682 
794 676 677 678 
795 675 185 676 
796 703 680 725 
797 51 703 725 
798 204 675 682 
799 676 185 677 
800 414 359 415 
801 678 677 679 
802 51 52 703 
803 52 188 703 
804 96 97 685 
805 94 95 704 
806 204 48 675 
807 47 204 684 
808 45 176 688 
809 97 172 685 
810 43 205 690 
811 113 187 691 
812 166 94 704 
813 106 107 184 
814 46 47 684 
815 42 43 690 
816 44 45 688 
817 48 49 675 
818 112 113 691 
819 92 93 707 
820 87 88 692 
821 83 84 171 
822 100 101 175 
823 49 185 675 
824 38 39 183 
825 176 46 684 
826 49 50 185 
827 205 44 688 
828 95 203 704 
829 47 48 204 
830 178 42 690 
831 206 112 691 
832 55 56 189 
833 45 46 176 
834 43 44 205 
835 109 110 177 
836 41 42 178 
837 111 112 206 
838 113 114 187 
839 89 90 168 
840 93 166 707 
841 103 104 186 
842 35 36 182 
843 52 53 188 
844 95 96 203 
845 203 96 685 
846 28 29 713 
847 90 91 711 
848 208 92 707 
849 27 28 209 
850 209 28 713 
851 29 170 713 
852 91 208 711 
853 91 92 208 
854 168 90 711 
855 25 26 173 
856 32 33 174 
857 80 81 169 
858 22 23 167 
859 29 30 170 
860 97 98 172 
861 93 94 166 
862 86 87 165 
863 165 87 692 
864 680 677 725 
865 677 185 725 
866 50 51 725 
867 697 695 698 
868 327 325 357 
869 325 322 726 
870 322 321 726 
871 324 326 344 
872 328 327 329 
873 679 677 680 
874 185 50 725 
875 326 327 328 
876 168 712 722 
877 326 325 327 
878 308 366 409 
879 324 325 326 
880 324 322 325 
881 357 325 726 
882 320 322 323 
883 323 322 324 
884 319 317 369 
885 320 321 322 
886 320 319 321 
887 409 500 733 
888 318 319 320 
889 316 318 345 
890 318 317 319 
891 316 313 317 
892 316 317 318 
893 369 317 728 
894 409 366 410 
895 409 410 500 
896 311 313 315 
897 297 302 731 
898 312 310 370 
899 315 313 316 
900 408 370 448 
901 408 448 449 
902 312 370 408 
903 308 409 729 
904 311 312 313 
905 317 313 728 
906 572 411 573 
907 692 88 701 
908 309 311 727 
909 697 698 699 
910 695 694 696 
911 366 309 727 
912 311 315 727 
913 312 408 728 
914 313 312 728 
915 311 310 312 
916 410 411 572 
917 410 366 411 
918 309 307 310 
919 694 692 701 
920 362 429 430 
921 309 310 311 
922 308 309 366 
923 370 310 730 
924 411 366 727 
925 412 365 433 
926 308 307 309 
927 412 433 501 
928 305 307 308 
929 306 304 365 
930 448 370 732 
931 302 354 362 
932 306 365 412 
933 305 306 307 
934 305 304 306 
935 310 307 730 
936 303 301 304 
937 370 730 732 
938 303 304 305 
939 362 354 429 
940 303 305 729 
941 302 303 354 
942 307 306 730 
943 306 412 730 
944 292 378 672 
945 414 415 528 
946 305 308 729 
947 354 303 729 
948 297 301 302 
949 730 412 732 
950 302 301 303 
951 412 501 732 
952 729 409 733 
953 413 414 532 
954 302 362 731 
955 356 335 668 
956 331 333 402 
957 429 354 733 
958 413 359 414 
959 433 365 736 
960 300 296 359 
961 354 729 733 
962 365 304 734 
963 292 371 378 
964 301 300 734 
965 300 413 734 
966 297 300 301 
967 300 359 413 
968 304 301 734 
969 297 296 300 
970 295 294 296 
971 295 296 297 
972 293 294 295 
973 378 397 505 
974 289 291 292 
975 505 397 506 
976 292 293 371 
977 293 291 294 
978 397 371 416 
979 365 734 736 
980 413 532 736 
981 378 371 397 
982 734 413 736 
983 289 292 672 
984 295 731 735 
985 362 430 739 
986 292 291 293 
987 735 731 739 
988 405 406 407 
989 670 290 741 
990 293 295 735 
991 294 291 737 
992 418 419 420 
993 416 735 739 
994 291 290 737 
995 671 294 737 
996 371 293 735 
997 282 348 418 
998 378 505 748 
999 416 371 735 
1000 418 420 754 
1001 289 287 290 
1002 288 289 672 
1003 289 290 291 
1004 555 514 556 
1005 433 736 738 
1006 329 327 743 
1007 344 699 937 
1008 422 527 643 
1009 286 284 374 
1010 380 374 457 
1011 632 633 634 
1012 285 287 288 
1013 288 287 289 
1014 736 532 738 
1015 513 514 555 
1016 731 362 739 
1017 422 423 527 
1018 431 502 589 
1019 431 401 502 
1020 422 421 423 
1021 531 670 749 
1022 380 457 543 
1023 282 418 745 
1024 743 357 744 
1025 502 401 507 
1026 286 374 380 
1027 374 284 750 
1028 404 403 518 
1029 285 286 287 
1030 290 287 741 
1031 632 631 633 
1032 419 421 422 
1033 418 348 419 
1034 285 284 286 
1035 327 357 743 
1036 287 286 741 
1037 419 348 421 
1038 285 288 740 
1039 283 284 285 
1040 286 380 741 
1041 283 281 284 
1042 404 631 632 
1043 283 285 740 
1044 402 403 404 
1045 282 283 348 
1046 505 746 748 
1047 740 288 747 
1048 404 518 631 
1049 747 672 748 
1050 348 283 740 
1051 672 378 748 
1052 457 374 753 
1053 288 672 747 
1054 527 423 746 
1055 421 348 740 
1056 279 281 282 
1057 417 379 513 
1058 280 278 379 
1059 421 740 747 
1060 669 402 752 
1061 282 281 283 
1062 670 741 749 
1063 337 335 356 
1064 661 356 662 
1065 423 747 748 
1066 741 380 749 
1067 405 299 406 
1068 423 421 747 
1069 339 337 661 
1070 417 513 515 
1071 280 379 417 
1072 380 543 749 
1073 746 423 748 
1074 277 275 278 
1075 279 280 281 
1076 261 355 424 
1077 284 281 750 
1078 276 277 299 
1079 277 279 745 
1080 374 750 753 
1081 299 277 745 
1082 277 278 279 
1083 279 278 280 
1084 404 632 752 
1085 402 404 752 
1086 279 282 745 
1087 280 417 750 
1088 281 280 750 
1089 276 275 277 
1090 275 274 751 
1091 340 339 764 
1092 379 278 751 
1093 407 406 547 
1094 273 275 276 
1095 750 417 753 
1096 278 275 751 
1097 417 515 753 
1098 337 356 661 
1099 745 418 754 
1100 664 356 668 
1101 299 745 754 
1102 273 274 275 
1103 762 259 763 
1104 406 299 754 
1105 269 271 298 
1106 273 272 274 
1107 662 356 664 
1108 272 270 372 
1109 347 343 363 
1110 666 274 756 
1111 667 756 758 
1112 269 298 742 
1113 271 272 273 
1114 273 276 755 
1115 298 271 755 
1116 274 272 756 
1117 271 270 272 
1118 372 270 761 
1119 271 273 755 
1120 272 372 756 
1121 268 269 742 
1122 269 270 271 
1123 395 560 594 
1124 269 267 270 
1125 453 762 763 
1126 260 259 762 
1127 565 587 651 
1128 376 436 657 
1129 605 606 607 
1130 567 517 618 
1131 263 260 762 
1132 367 363 395 
1133 424 425 432 
1134 264 267 268 
1135 240 238 241 
1136 266 263 377 
1137 446 616 845 
1138 523 452 613 
1139 268 267 269 
1140 341 342 765 
1141 393 376 437 
1142 426 452 523 
1143 426 377 452 
1144 756 372 758 
1145 424 355 425 
1146 565 564 587 
1147 560 428 561 
1148 516 517 567 
1149 579 394 580 
1150 121 122 820 
1151 718 717 719 
1152 563 564 565 
1153 516 427 517 
1154 341 765 776 
1155 395 428 560 
1156 393 562 563 
1157 266 377 426 
1158 40 706 771 
1159 183 39 771 
1160 264 266 267 
1161 395 363 428 
1162 393 437 562 
1163 262 260 263 
1164 749 543 770 
1165 264 263 266 
1166 262 263 264 
1167 563 562 564 
1168 70 71 210 
1169 394 367 757 
1170 758 372 769 
1171 436 582 657 
1172 367 395 757 
1173 68 69 164 
1174 261 262 355 
1175 350 376 393 
1176 343 340 764 
1177 242 246 796 
1178 339 661 774 
1179 476 474 934 
1180 270 267 761 
1181 425 355 427 
1182 425 427 516 
1183 66 67 211 
1184 262 264 760 
1185 626 625 627 
1186 372 761 769 
1187 698 323 937 
1188 264 268 760 
1189 363 343 764 
1190 258 260 261 
1191 355 262 760 
1192 377 263 762 
1193 266 426 761 
1194 261 260 262 
1195 580 394 757 
1196 267 266 761 
1197 229 225 931 
1198 407 547 792 
1199 428 363 764 
1200 519 665 778 
1201 486 482 933 
1202 765 563 776 
1203 778 368 782 
1204 342 350 765 
1205 72 73 219 
1206 427 355 760 
1207 200 599 842 
1208 764 339 774 
1209 656 341 776 
1210 531 749 770 
1211 761 426 769 
1212 257 255 358 
1213 426 523 769 
1214 268 742 772 
1215 393 563 765 
1216 85 86 781 
1217 39 40 771 
1218 760 268 772 
1219 681 678 798 
1220 491 490 499 
1221 350 393 765 
1222 247 244 252 
1223 427 760 772 
1224 432 425 767 
1225 258 259 260 
1226 517 427 772 
1227 258 257 259 
1228 193 78 791 
1229 74 75 788 
1230 475 476 477 
1231 69 70 777 
1232 428 764 774 
1233 683 449 821 
1234 660 181 892 
1235 425 516 767 
1236 481 480 482 
1237 651 778 782 
1238 254 256 349 
1239 256 257 258 
1240 526 525 819 
1241 314 441 443 
1242 124 125 890 
1243 207 605 617 
1244 70 210 777 
1245 164 69 777 
1246 613 173 864 
1247 561 428 774 
1248 136 137 639 
1249 398 391 399 
1250 368 656 782 
1251 463 464 465 
1252 794 637 870 
1253 656 776 782 
1254 466 496 940 
1255 563 565 776 
1256 258 261 773 
1257 256 255 257 
1258 627 649 650 
1259 691 187 794 
1260 449 448 834 
1261 665 368 778 
1262 776 565 782 
1263 724 315 850 
1264 591 590 948 
1265 410 572 793 
1266 248 251 253 
1267 654 521 942 
1268 249 802 816 
1269 254 251 255 
1270 189 591 948 
1271 820 122 928 
1272 81 82 795 
1273 86 165 781 
1274 256 258 773 
1275 382 381 936 
1276 254 255 256 
1277 319 369 798 
1278 593 592 827 
1279 349 256 773 
1280 253 251 254 
1281 783 226 784 
1282 244 242 796 
1283 565 651 782 
1284 627 625 649 
1285 457 753 801 
1286 242 241 246 
1287 251 250 775 
1288 213 596 876 
1289 506 687 807 
1290 358 255 775 
1291 623 21 785 
1292 17 18 854 
1293 723 850 910 
1294 575 874 898 
1295 658 653 865 
1296 99 100 806 
1297 571 213 857 
1298 488 511 878 
1299 687 172 807 
1300 98 99 807 
1301 596 597 927 
1302 383 382 384 
1303 795 82 871 
1304 255 251 775 
1305 496 883 940 
1306 686 687 924 
1307 196 154 574 
1308 589 189 948 
1309 501 433 813 
1310 166 704 812 
1311 443 558 768 
1312 248 250 251 
1313 432 767 794 
1314 624 626 886 
1315 465 466 467 
1316 451 512 907 
1317 469 468 470 
1318 573 712 879 
1319 248 247 250 
1320 759 608 888 
1321 221 222 783 
1322 159 180 538 
1323 543 457 873 
1324 75 216 788 
1325 243 245 265 
1326 191 160 538 
1327 57 660 822 
1328 152 364 545 
1329 187 637 794 
1330 85 781 853 
1331 189 56 822 
1332 78 79 791 
1333 682 683 821 
1334 684 204 821 
1335 202 648 858 
1336 222 226 783 
1337 245 247 248 
1338 161 191 641 
1339 640 349 903 
1340 541 192 904 
1341 153 545 574 
1342 588 542 614 
1343 243 265 810 
1344 175 101 829 
1345 763 259 817 
1346 680 703 831 
1347 715 31 833 
1348 155 196 221 
1349 32 174 833 
1350 520 578 795 
1351 240 241 242 
1352 230 229 231 
1353 176 684 834 
1354 500 410 793 
1355 212 808 841 
1356 245 244 247 
1357 455 385 456 
1358 449 683 911 
1359 510 809 854 
1360 122 214 928 
1361 620 618 837 
1362 195 121 820 
1363 169 81 795 
1364 257 358 817 
1365 437 658 865 
1366 141 179 542 
1367 64 65 799 
1368 618 517 837 
1369 625 623 785 
1370 477 478 479 
1371 685 686 840 
1372 705 203 840 
1373 321 319 798 
1374 1 10 900 
1375 443 444 558 
1376 248 253 789 
1377 697 634 875 
1378 483 482 484 
1379 252 244 796 
1380 647 645 894 
1381 487 488 489 
1382 111 206 848 
1383 177 110 848 
1384 577 212 897 
1385 802 503 816 
1386 315 316 850 
1387 237 239 314 
1388 781 633 853 
1389 690 205 813 
1390 700 698 860 
1391 699 698 937 
1392 460 459 461 
1393 171 631 918 
1394 492 509 569 
1395 521 654 846 
1396 171 84 853 
1397 511 874 878 
1398 228 229 230 
1399 467 468 469 
1400 137 1 900 
1401 708 54 856 
1402 55 189 856 
1403 588 559 846 
1404 455 497 498 
1405 713 170 814 
1406 243 244 245 
1407 632 634 859 
1408 698 695 860 
1409 344 752 859 
1410 753 515 801 
1411 568 533 904 
1412 520 795 871 
1413 194 142 542 
1414 27 209 864 
1415 173 26 864 
1416 164 777 845 
1417 649 625 785 
1418 243 242 244 
1419 600 210 953 
1420 221 196 222 
1421 352 382 383 
1422 461 459 938 
1423 757 594 858 
1424 314 440 441 
1425 545 364 546 
1426 798 678 882 
1427 784 226 867 
1428 627 650 825 
1429 190 156 583 
1430 143 194 654 
1431 83 171 871 
1432 455 456 497 
1433 414 528 872 
1434 405 407 877 
1435 714 713 814 
1436 219 600 953 
1437 383 384 385 
1438 186 643 917 
1439 497 456 510 
1440 383 385 454 
1441 693 697 875 
1442 479 480 481 
1443 550 636 802 
1444 869 660 892 
1445 233 396 797 
1446 177 619 891 
1447 198 17 854 
1448 231 229 805 
1449 390 391 398 
1450 712 711 879 
1451 499 784 867 
1452 772 742 837 
1453 298 755 877 
1454 531 770 868 
1455 777 581 845 
1456 80 169 884 
1457 245 248 789 
1458 538 180 575 
1459 100 175 806 
1460 265 245 789 
1461 454 455 790 
1462 673 183 868 
1463 240 242 243 
1464 497 510 642 
1465 454 385 455 
1466 443 441 444 
1467 155 154 196 
1468 702 108 891 
1469 645 186 894 
1470 109 177 891 
1471 172 98 807 
1472 647 894 930 
1473 542 179 614 
1474 186 104 894 
1475 688 689 893 
1476 714 523 929 
1477 526 575 898 
1478 635 439 804 
1479 232 231 233 
1480 159 158 180 
1481 145 144 199 
1482 249 8 550 
1483 161 160 191 
1484 638 201 905 
1485 543 873 951 
1486 212 841 897 
1487 408 449 911 
1488 369 728 911 
1489 239 238 240 
1490 357 726 946 
1491 103 186 917 
1492 139 138 192 
1493 631 518 918 
1494 324 344 937 
1495 739 430 924 
1496 462 461 463 
1497 127 4 908 
1498 106 184 930 
1499 513 555 919 
1500 141 140 179 
1501 9 221 583 
1502 704 705 812 
1503 433 738 813 
1504 484 487 787 
1505 194 542 588 
1506 781 165 875 
1507 886 629 926 
1508 236 554 636 
1509 153 152 545 
1510 157 156 190 
1511 314 239 440 
1512 455 498 790 
1513 152 151 364 
1514 441 440 442 
1515 481 482 483 
1516 505 506 896 
1517 667 758 814 
1518 237 235 238 
1519 3 74 915 
1520 150 8 249 
1521 715 556 899 
1522 384 387 823 
1523 733 500 902 
1524 234 233 235 
1525 175 746 896 
1526 237 238 239 
1527 143 142 194 
1528 154 153 574 
1529 210 71 953 
1530 516 567 932 
1531 249 550 802 
1532 4 128 908 
1533 447 636 830 
1534 265 759 866 
1535 259 257 817 
1536 456 385 823 
1537 163 624 826 
1538 160 159 538 
1539 345 700 860 
1540 63 2 916 
1541 247 252 885 
1542 492 569 861 
1543 254 349 925 
1544 585 124 912 
1545 72 219 953 
1546 358 775 825 
1547 489 490 491 
1548 125 200 890 
1549 6 161 641 
1550 507 744 831 
1551 583 221 783 
1552 230 231 232 
1553 554 553 630 
1554 545 546 557 
1555 73 3 915 
1556 742 298 895 
1557 232 233 234 
1558 142 141 542 
1559 450 439 635 
1560 791 79 884 
1561 234 235 237 
1562 483 484 485 
1563 204 682 821 
1564 235 233 797 
1565 56 57 822 
1566 9 155 221 
1567 830 554 907 
1568 642 163 826 
1569 2 64 916 
1570 854 18 935 
1571 7 143 654 
1572 227 225 228 
1573 814 170 899 
1574 636 554 830 
1575 470 472 473 
1576 222 196 223 
1577 628 627 825 
1578 536 190 537 
1579 885 252 926 
1580 321 798 882 
1581 483 485 638 
1582 874 511 898 
1583 101 102 829 
1584 703 188 831 
1585 156 9 583 
1586 501 813 893 
1587 31 32 833 
1588 398 399 595 
1589 387 390 445 
1590 608 610 888 
1591 381 447 936 
1592 796 246 811 
1593 689 176 834 
1594 435 459 460 
1595 119 120 824 
1596 444 611 952 
1597 218 599 908 
1598 648 217 945 
1599 868 183 943 
1600 232 234 373 
1601 240 243 810 
1602 550 236 636 
1603 497 642 826 
1604 149 236 550 
1605 572 573 879 
1606 387 445 823 
1607 581 446 845 
1608 227 360 361 
1609 383 454 811 
1610 510 456 809 
1611 180 158 535 
1612 8 149 550 
1613 237 314 836 
1614 179 140 541 
1615 468 466 940 
1616 825 650 920 
1617 203 685 840 
1618 921 469 923 
1619 224 223 225 
1620 465 467 494 
1621 655 432 870 
1622 517 772 837 
1623 438 360 439 
1624 179 541 779 
1625 485 484 787 
1626 364 544 780 
1627 553 353 630 
1628 492 491 493 
1629 361 438 508 
1630 506 806 896 
1631 192 138 540 
1632 239 240 810 
1633 149 148 236 
1634 352 383 811 
1635 364 151 544 
1636 705 429 902 
1637 475 477 522 
1638 147 146 353 
1639 209 714 929 
1640 460 461 462 
1641 345 860 910 
1642 236 553 554 
1643 110 111 848 
1644 199 144 539 
1645 492 493 509 
1646 222 224 226 
1647 316 345 850 
1648 667 814 899 
1649 561 663 869 
1650 489 491 492 
1651 653 193 865 
1652 500 812 902 
1653 373 804 887 
1654 462 463 808 
1655 236 148 553 
1656 479 481 495 
1657 637 607 870 
1658 147 353 553 
1659 600 219 922 
1660 84 85 853 
1661 498 497 826 
1662 385 384 823 
1663 54 55 856 
1664 440 239 810 
1665 858 648 945 
1666 659 594 947 
1667 246 352 811 
1668 398 786 949 
1669 491 499 844 
1670 864 209 929 
1671 546 364 780 
1672 148 147 553 
1673 195 635 881 
1674 228 230 803 
1675 752 632 859 
1676 695 696 860 
1677 810 265 866 
1678 721 453 914 
1679 851 580 945 
1680 538 575 819 
1681 594 560 947 
1682 507 831 913 
1683 580 757 858 
1684 460 462 766 
1685 438 439 450 
1686 227 228 360 
1687 26 27 864 
1688 678 679 882 
1689 499 843 844 
1690 595 399 832 
1691 614 179 779 
1692 557 546 805 
1693 10 220 900 
1694 361 360 438 
1695 74 788 915 
1696 562 437 865 
1697 353 146 551 
1698 811 454 880 
1699 593 828 842 
1700 496 614 883 
1701 638 485 827 
1702 831 188 913 
1703 529 531 868 
1704 224 225 227 
1705 630 451 907 
1706 829 102 917 
1707 849 638 905 
1708 590 589 948 
1709 796 811 880 
1710 361 508 843 
1711 770 543 951 
1712 82 83 871 
1713 532 414 872 
1714 457 801 873 
1715 813 205 893 
1716 512 830 907 
1717 626 629 886 
1718 799 584 851 
1719 837 742 895 
1720 674 770 951 
1721 709 182 873 
1722 358 825 920 
1723 222 223 224 
1724 439 803 804 
1725 165 693 875 
1726 755 405 877 
1727 552 199 839 
1728 485 787 828 
1729 708 502 913 
1730 601 600 922 
1731 467 469 835 
1732 860 696 910 
1733 575 180 874 
1734 227 361 862 
1735 459 521 938 
1736 349 655 903 
1737 439 360 803 
1738 711 208 879 
1739 788 219 915 
1740 234 237 836 
1741 217 63 916 
1742 220 586 939 
1743 469 470 923 
1744 536 537 852 
1745 865 193 941 
1746 726 321 882 
1747 220 639 900 
1748 183 771 943 
1749 79 80 884 
1750 170 715 899 
1751 360 228 803 
1752 192 540 568 
1753 199 539 839 
1754 217 799 851 
1755 871 171 918 
1756 399 435 832 
1757 529 868 943 
1758 440 810 866 
1759 472 475 838 
1760 808 463 841 
1761 493 491 844 
1762 562 865 941 
1763 194 588 846 
1764 532 872 950 
1765 771 528 943 
1766 353 551 815 
1767 827 485 828 
1768 746 505 896 
1769 524 641 901 
1770 622 620 895 
1771 192 568 904 
1772 108 109 891 
1773 873 182 951 
1774 463 465 841 
1775 205 688 893 
1776 104 105 894 
1777 473 472 838 
1778 787 487 861 
1779 217 851 945 
1780 373 234 836 
1781 442 440 866 
1782 250 247 885 
1783 639 137 900 
1784 560 561 892 
1785 898 486 933 
1786 429 733 902 
1787 483 638 849 
1788 639 220 939 
1789 477 479 847 
1790 801 709 873 
1791 641 191 901 
1792 556 667 899 
1793 128 218 908 
1794 607 640 903 
1795 502 507 913 
1796 193 791 941 
1797 232 373 887 
1798 494 467 835 
1799 630 353 815 
1800 894 105 930 
1801 696 723 910 
1802 650 718 920 
1803 728 408 911 
1804 454 790 880 
1805 188 708 913 
1806 487 489 861 
1807 818 493 844 
1808 481 483 849 
1809 435 460 832 
1810 180 535 874 
1811 870 607 903 
1812 102 103 917 
1813 518 520 918 
1814 515 513 919 
1815 252 796 880 
1816 629 885 926 
1817 655 870 903 
1818 475 522 838 
1819 817 358 920 
1820 453 763 914 
1821 460 766 832 
1822 620 837 895 
1823 863 476 934 
1824 465 494 841 
1825 416 739 924 
1826 230 232 887 
1827 105 106 930 
1828 508 438 855 
1829 479 495 847 
1830 489 492 861 
1831 598 921 923 
1832 181 659 947 
1833 523 613 929 
1834 219 73 915 
1835 323 324 937 
1836 447 830 936 
1837 876 596 927 
1838 528 529 943 
1839 522 477 847 
1840 847 495 857 
1841 495 481 849 
1842 744 357 946 
1843 182 674 951 
1844 738 532 950 
1845 438 450 855 
1846 564 562 941 
1847 613 864 929 
1848 71 72 953 
1849 226 224 862 
1850 450 820 928 
1851 253 254 925 
1852 786 198 906 
1853 580 858 945 
1854 804 803 887 
1855 799 217 916 
1856 767 516 932 
1857 768 558 881 
1858 598 800 921 
1859 568 540 863 
1860 219 788 922 
1861 226 862 867 
1862 809 445 906 
1863 554 630 907 
1864 252 880 926 
1865 791 564 941 
1866 390 398 949 
1867 225 223 931 
1868 803 230 887 
1869 806 175 896 
1870 224 227 862 
1871 838 522 876 
1872 843 499 867 
1873 521 846 938 
1874 880 790 926 
1875 64 799 916 
1876 593 827 828 
1877 536 852 878 
1878 779 534 883 
1879 846 559 938 
1880 812 705 902 
1881 839 539 942 
1882 824 558 952 
1883 839 458 944 
1884 614 779 883 
1885 642 510 935 
1886 718 817 920 
1887 805 546 889 
1888 561 869 892 
1889 470 473 923 
1890 546 780 889 
1891 890 509 912 
1892 850 345 910 
1893 855 450 928 
1894 558 444 952 
1895 445 390 949 
1896 841 494 897 
1897 586 800 939 
1898 520 871 918 
1899 510 854 935 
1900 835 469 921 
1901 458 839 942 
1902 560 892 947 
1903 568 863 934 
1904 892 181 947 
1905 214 855 928 
1906 552 839 944 
1907 830 512 936 
1908 906 445 949 
1909 786 906 949 
1910 909 552 944 
1911 883 534 940 
1912 526 898 933 
1913 434 909 944 
$EndElements
